<?xml version="1.0" encoding="UTF-8"?>
<!-- Generator: Adobe Illustrator 16.0.0, SVG Export Plug-In . SVG Version: 6.00 Build 0)  -->
<svg width="170" height="220" version="1.1" viewBox="0 0 170 220" xml:space="preserve" xmlns="http://www.w3.org/2000/svg" xmlns:cc="http://creativecommons.org/ns#" xmlns:dc="http://purl.org/dc/elements/1.1/" xmlns:rdf="http://www.w3.org/1999/02/22-rdf-syntax-ns#"><metadata><rdf:RDF><cc:Work rdf:about=""><dc:format>image/svg+xml</dc:format><dc:type rdf:resource="http://purl.org/dc/dcmitype/StillImage"/><dc:title/></cc:Work></rdf:RDF></metadata>
<g transform="matrix(.29817 0 0 .29817 9.1021 156.33)" stroke-width="3.3538"><g transform="translate(-654.92 -490.76)" fill="#ff7e28" stroke-width="3.3538"><g transform="translate(634.17)" stroke-width="3.3538">
	<path d="m475.2 212.08-1.9e-4 -78.878c0-0.398-0.063-0.799-0.116-1.202-0.021-2.534-0.827-5.023-2.562-6.995l-106.2-121.31c-0.032-0.031-0.063-0.042-0.085-0.076-2.1986-2.3267-4.9923-3.4176-8.047-3.618h-260.99c-11.918 0-21.6 9.693-21.6 21.601l3.88e-4 190.48h21.6v-190.48h250.19v110.51c0 5.967 4.841 10.8 10.8 10.8h95.407v69.163zm-21.6 179.5v131.78h1e-3 -356.4v-131.78h-21.599l2.58e-4 137.62c0 11.907 9.682 21.601 21.6 21.601h356.4c11.907 0 21.6-9.693 21.6-21.601l-3.6e-4 -137.62z" fill="#ff7e28" fill-rule="evenodd" stroke-width="3.3538"/>
</g><path d="m701.38 195.35c-20.013 0-36.125 16.112-36.125 36.125v150.23c0 20.013 16.112 36.125 36.125 36.125h416.37c20.013 0 36.125-16.112 36.125-36.125v-150.23c0-20.013-16.112-36.125-36.125-36.125zm9.1894 40.404h62.246c36.176 0 56.99 18.189 56.99 49.717 0 33.346-20.815 52.746-56.99 52.746h-25.264v39.207h-36.982zm137.36 0h61.033c44.866 0 75.383 28.698 75.383 70.734 0 42.238-30.921 70.936-76.797 70.936h-59.619zm154.73 0h105.9l-0.2032 29.506h-68.713v31.527h63.459v29.506h-63.459v51.131h-36.984zm-255.11 29.506v43.451h23.443c14.955 0 23.646-7.6803 23.646-22.029 0-13.945-8.6912-21.422-23.646-21.422zm137.37 0.60742v81.646h25.059c21.422 0 36.58-16.369 36.58-40.621 0-24.454-15.966-41.025-38.398-41.025z" style="paint-order:normal"/></g><path d="m474.71 178.96v-51.352h34.383v9.7073h-22.823v10.745h20.304v9.7073h-20.304v21.193zm-43.003-9.4109q0.81512 0.0741 1.8525 0.1482 1.1115 0 2.5936 0 8.6699 0 12.82-4.372 4.2238-4.372 4.2238-12.079 0-8.0771-4.0015-12.227-4.0015-4.1497-12.671-4.1497-1.1856 0-2.4453 0.0741-1.2597 0-2.3712 0.14821zm33.42-16.302q0 6.6691-2.0748 11.634-2.0748 4.9648-5.9281 8.2253-3.7792 3.2605-9.2627 4.8907-5.4835 1.6302-12.301 1.6302-3.1123 0-7.2619-0.29641-4.1497-0.2223-8.1512-1.0374v-50.018q4.0015-0.74102 8.2994-0.96332 4.372-0.29641 7.4842-0.29641 6.595 0 11.93 1.482 5.4094 1.482 9.2627 4.6684t5.9281 8.1512q2.0748 4.9648 2.0748 11.93zm-77.327-26.232q11.486 0 17.636 4.0756 6.1504 4.0015 6.1504 13.19 0 9.2627-6.2245 13.412-6.2245 4.0756-17.784 4.0756h-3.631v17.192h-11.56v-50.611q3.7792-0.74102 8.003-1.0374 4.2238-0.29641 7.4102-0.29641zm0.74101 9.8555q-1.2597 0-2.5194 0.0741-1.1856 0.0741-2.0748 0.14821v14.82h3.631q6.0022 0 9.0404-1.6302 3.0382-1.6302 3.0382-6.0763 0-2.1489-0.81511-3.5569-0.74102-1.4079-2.223-2.223-1.4079-0.88922-3.4828-1.1856-2.0748-0.37051-4.5943-0.37051zm-70.007 22.305q0 5.113 2.2972 8.2253 2.2971 3.1123 6.8173 3.1123 1.482 0 2.7418-0.0741 1.2597-0.1482 2.0748-0.2964v-20.082q-1.0374-0.66691-2.7418-1.1115-1.6302-0.44461-3.3346-0.44461-7.8548 0-7.8548 10.671zm24.972 18.525q-1.482 0.44461-3.4087 0.88922-1.9266 0.37051-4.0756 0.66691-2.0748 0.29641-4.2979 0.44461-2.1489 0.22231-4.1497 0.22231-4.8166 0-8.5958-1.4079-3.7792-1.4079-6.3727-4.0015-2.5936-2.6676-4.0015-6.3727-1.3338-3.7792-1.3338-8.4476 0-4.7425 1.1856-8.5217 1.1856-3.8533 3.4087-6.5209 2.223-2.6676 5.4094-4.0756 3.2605-1.4079 7.4101-1.4079 2.2972 0 4.0756 0.4446 1.8525 0.44461 3.7051 1.2597v-17.636l11.041-1.7784zm-60.447-6.4468q1.6302 0 3.1122-0.0741 1.482-0.0741 2.3712-0.22231v-8.3735q-0.66691-0.1482-2.0007-0.2964-1.3338-0.1482-2.4453-0.1482-1.5561 0-2.9641 0.2223-1.3338 0.1482-2.3712 0.66691t-1.6302 1.4079-0.59281 2.223q0 2.5936 1.7043 3.631 1.7784 0.96332 4.8166 0.96332zm-0.88922-32.308q4.8907 0 8.1512 1.1115 3.2605 1.1115 5.1871 3.1864 2.0007 2.0748 2.8159 5.0389 0.81511 2.9641 0.81511 6.595v22.971q-2.3712 0.51871-6.595 1.1856-4.2238 0.74101-10.226 0.74101-3.7792 0-6.8914-0.66691-3.0382-0.66691-5.2612-2.1489-2.223-1.5561-3.4087-4.0015-1.1856-2.4453-1.1856-6.0022 0-3.4087 1.3338-5.7799 1.4079-2.3712 3.7051-3.7792 2.2971-1.4079 5.2612-2.0007 2.964-0.66692 6.1504-0.66692 2.1489 0 3.7792 0.22231 1.7043 0.1482 2.7418 0.44461v-1.0374q0-2.8159-1.7043-4.5202-1.7043-1.7043-5.9281-1.7043-2.8158 0-5.5576 0.44461-2.7418 0.3705-4.7425 1.1115l-1.4079-8.8922q0.96332-0.29641 2.3712-0.59281 1.482-0.37051 3.1864-0.59282 1.7043-0.2964 3.5569-0.4446 1.9266-0.22231 3.8533-0.22231zm-22.558 20.452q0 4.5943-1.3338 8.4476-1.3338 3.7792-3.8533 6.5209-2.5194 2.6676-6.0763 4.1497-3.4828 1.482-7.8548 1.482-4.2979 0-7.8548-1.482-3.4828-1.482-6.0022-4.1497-2.5194-2.7418-3.9274-6.5209-1.4079-3.8533-1.4079-8.4476 0-4.5943 1.4079-8.3735 1.482-3.7792 4.0015-6.4468 2.5936-2.6676 6.0763-4.1497 3.5569-1.482 7.7066-1.482 4.2238 0 7.7066 1.482 3.5569 1.482 6.0763 4.1497t3.9274 6.4468q1.4079 3.7792 1.4079 8.3735zm-11.263 0q0-5.113-2.0748-8.003-2.0007-2.9641-5.7799-2.9641t-5.854 2.9641q-2.0748 2.89-2.0748 8.003 0 5.113 2.0748 8.1512 2.0748 2.9641 5.854 2.9641t5.7799-2.9641q2.0748-3.0382 2.0748-8.1512zm-33.079 20.304q-4.8166-0.0741-7.8548-1.0374-2.964-0.96332-4.7425-2.6676-1.7043-1.7784-2.3712-4.2238-0.59282-2.5194-0.59282-5.6317v-42.905l11.041-1.7784v42.46q0 1.482 0.2223 2.6676t0.81512 2.0007q0.66691 0.81511 1.8525 1.3338t3.1864 0.66692zm-59.27-38.385q2.8159-0.81512 7.2619-1.482 4.4461-0.74102 9.3368-0.74102 4.9648 0 8.2253 1.3338 3.3346 1.2597 5.2612 3.631t2.7418 5.6317q0.81512 3.2605 0.81512 7.2619v22.008h-11.041v-20.674q0-5.3353-1.4079-7.5583-1.4079-2.223-5.2612-2.223-1.1856 0-2.5194 0.14821-1.3338 0.0741-2.3712 0.2223v30.085h-11.041zm-34.324 15.265q-1.482 5.6317-3.1864 11.189-1.6302 5.5576-3.4828 11.189h-8.5958q-1.3338-3.1123-2.89-7.4101-1.5561-4.2979-3.2605-9.3368-1.6302-5.113-3.4087-10.745-1.7043-5.7058-3.3346-11.486h11.634q0.59281 2.6676 1.2597 5.854 0.74101 3.1123 1.482 6.4468 0.81512 3.3346 1.6302 6.7432 0.88921 3.3346 1.7784 6.4468 0.96332-3.2605 1.8525-6.6691 0.96332-3.4087 1.7784-6.6691 0.88922-3.3346 1.6302-6.3727 0.81512-3.1123 1.4079-5.7799h8.003q0.59281 2.6676 1.3338 5.7799 0.74101 3.0382 1.5561 6.3727 0.81511 3.2605 1.7043 6.6691 0.88922 3.4087 1.8525 6.6691 0.88922-3.1123 1.7784-6.4468 0.88921-3.4087 1.6302-6.7432 0.81511-3.3346 1.482-6.4468 0.74101-3.1864 1.3338-5.854h11.486q-1.6302 5.7799-3.4087 11.486-1.7043 5.6317-3.4087 10.745-1.6302 5.0389-3.2605 9.3368-1.5561 4.2979-2.89 7.4101h-8.5958q-1.8525-5.6317-3.631-11.189-1.7784-5.5576-3.2605-11.189zm-31.397 2.8158q0 4.5943-1.3338 8.4476-1.3338 3.7792-3.8533 6.5209-2.5194 2.6676-6.0763 4.1497-3.4828 1.482-7.8548 1.482-4.2979 0-7.8548-1.482-3.4828-1.482-6.0022-4.1497-2.5194-2.7418-3.9274-6.5209-1.4079-3.8533-1.4079-8.4476 0-4.5943 1.4079-8.3735 1.482-3.7792 4.0015-6.4468 2.5935-2.6676 6.0763-4.1497 3.5569-1.482 7.7065-1.482 4.2238 0 7.7065 1.482 3.5569 1.482 6.0763 4.1497t3.9274 6.4468q1.4079 3.7792 1.4079 8.3735zm-11.263 0q0-5.113-2.0748-8.003-2.0007-2.9641-5.7799-2.9641-3.7792 0-5.854 2.9641-2.0748 2.89-2.0748 8.003 0 5.113 2.0748 8.1512 2.0748 2.9641 5.854 2.9641 3.7792 0 5.7799-2.9641 2.0748-3.0382 2.0748-8.1512zm-67.457 10.152q0.81512 0.0741 1.8525 0.1482 1.1115 0 2.5935 0 8.6699 0 12.82-4.372 4.2238-4.372 4.2238-12.079 0-8.0771-4.0015-12.227-4.0015-4.1497-12.671-4.1497-1.1856 0-2.4453 0.0741-1.2597 0-2.3712 0.14821zm33.42-16.302q0 6.6691-2.0748 11.634-2.0748 4.9648-5.9281 8.2253-3.7792 3.2605-9.2627 4.8907t-12.301 1.6302q-3.1123 0-7.2619-0.29641-4.1497-0.2223-8.1512-1.0374v-50.018q4.0015-0.74102 8.2994-0.96332 4.372-0.29641 7.4842-0.29641 6.595 0 11.93 1.482 5.4094 1.482 9.2627 4.6684 3.8533 3.1864 5.9281 8.1512 2.0748 4.9648 2.0748 11.93z" dominant-baseline="auto" fill-rule="evenodd" style="font-feature-settings:normal;font-variant-alternates:normal;font-variant-caps:normal;font-variant-ligatures:normal;font-variant-numeric:normal;font-variant-position:normal;paint-order:normal;shape-padding:0;text-decoration-color:#000000;text-decoration-line:none;text-decoration-style:solid;text-indent:0;text-orientation:mixed;text-transform:none;white-space:normal"/></g></svg>
