<?xml version="1.0" encoding="UTF-8"?>
<!-- Created with Inkscape (http://www.inkscape.org/) -->
<svg width="170" height="220" version="1.1" viewBox="0 0 170 220" xmlns="http://www.w3.org/2000/svg" xmlns:cc="http://creativecommons.org/ns#" xmlns:dc="http://purl.org/dc/elements/1.1/" xmlns:rdf="http://www.w3.org/1999/02/22-rdf-syntax-ns#">
 <metadata>
  <rdf:RDF>
   <cc:Work rdf:about="">
    <dc:format>image/svg+xml</dc:format>
    <dc:type rdf:resource="http://purl.org/dc/dcmitype/StillImage"/>
    <dc:title/>
   </cc:Work>
  </rdf:RDF>
 </metadata>
 <g transform="translate(3.509 15.695)">
  <g transform="matrix(1.1269,0,0,1.1269,2.2653,-35.933)" stroke-width=".88736">
   <g transform="matrix(.26458 0 0 .26458 -170.35 26.835)" fill="#ff7e28" style="paint-order:normal">
    <g transform="translate(634.17)" style="paint-order:normal">
     <path d="m475.2 212.08-1.9e-4 -78.878c0-0.398-0.063-0.799-0.116-1.202-0.021-2.534-0.827-5.023-2.562-6.995l-106.2-121.31c-0.032-0.031-0.063-0.042-0.085-0.076-2.1986-2.3267-4.9923-3.4176-8.047-3.618h-260.99c-11.918 0-21.6 9.693-21.6 21.601l3.88e-4 190.48h21.6v-190.48h250.19v110.51c0 5.967 4.841 10.8 10.8 10.8h95.407v69.163zm-21.6 179.5v131.78h1e-3 -356.4v-131.78h-21.599l2.58e-4 137.62c0 11.907 9.682 21.601 21.6 21.601h356.4c11.907 0 21.6-9.693 21.6-21.601l-3.6e-4 -137.62z" fill="#ff7e28" fill-rule="evenodd" style="paint-order:normal"/>
    </g>
    <path transform="translate(-12.558,-1.2695e-5)" d="m713.94 195.35c-20.013 0-36.125 16.112-36.125 36.125v150.23c0 20.013 16.112 36.125 36.125 36.125h416.37c20.013 0 36.125-16.112 36.125-36.125v-150.23c0-20.013-16.112-36.125-36.125-36.125zm9.1894 58.994h80.93v21.365h-54.148v19.172h48.881v21.221l-48.881 0.14649v19.318h55.613v21.365h-82.395zm98.898 0h45.076c26.196 0 41.27 13.17 41.27 36 0 24.147-15.073 38.197-41.27 38.197h-18.295v28.391h-26.781zm97.715 0h26.781v60.295c0 13.171 8.6339 21.365 20.195 21.365 11.415 0 19.318-8.0476 19.318-21.365v-60.295h26.781v60.295c0 26.928-17.853 44.195-46.244 44.195s-46.832-17.267-46.832-44.195zm111.23 0h48.734c23.269 0 38.051 10.097 38.051 25.902 0 10.683-6.8792 19.317-17.709 22.244 13.025 2.6343 21.074 12.733 21.074 25.904 0 17.562-15.366 28.537-39.514 28.537h-50.637zm26.781 20.926v19.904h20.49c7.4638 0 12-3.8048 12-10.244 0-6.1466-4.5362-9.8065-12-9.6602zm-208.95 0.43945v31.465h16.977c10.83 0 17.123-5.5605 17.123-15.951 0-10.098-6.2933-15.514-17.123-15.514zm208.95 38.93v21.512h20.49c9.3663 0 15.219-4.0964 15.219-11.121 0-6.4393-5.8525-10.537-15.219-10.391z" style="paint-order:normal"/>
   </g>
   <path d="m137.92 204.21q-1.1175 0-2.2351-0.0784-1.098-0.0588-2.2939-0.31369v-13.175q0.9411-0.17646 2.0586-0.25488 1.1176-0.098 2.0782-0.098 1.294 0 2.3723 0.19606 1.0979 0.17645 1.8822 0.62739t1.2156 1.196q0.45092 0.72542 0.45092 1.8038 0 1.6273-1.5685 2.5684 1.294 0.49015 1.7645 1.3332 0.47056 0.84306 0.47056 1.9018 0 2.137-1.5685 3.2154-1.5489 1.0783-4.627 1.0783zm-1.5489-6.0975v3.5095q0.3333 0.0392 0.72544 0.0588 0.39211 0.0196 0.86264 0.0196 1.3724 0 2.2155-0.39212 0.84304-0.39212 0.84304-1.4508 0-0.94109-0.7058-1.3332-0.70583-0.41173-2.0194-0.41173zm0-2.3331h1.4901q1.4116 0 2.0194-0.35291 0.60777-0.37251 0.60777-1.1764 0-0.82345-0.62738-1.1568-0.6274-0.33331-1.843-0.33331-0.39211 0-0.84304 0.0196-0.45096 0-0.80386 0.0392zm-11.529 8.5286q-1.4312 0-2.4704-0.39212-1.0391-0.41173-1.7253-1.1175-0.66662-0.72542-0.99991-1.7057-0.31369-0.9999-0.31369-2.1959v-8.4502h3.0585v8.1953q0 0.82345 0.17645 1.4116 0.19606 0.56857 0.50977 0.94109 0.3333 0.3529 0.78423 0.50975 0.47053 0.15685 1.0195 0.15685 1.1175 0 1.8037-0.68621 0.70583-0.68621 0.70583-2.3331v-8.1953h3.0585v8.4502q0 1.196-0.3333 2.1959-0.33332 0.99991-1.0195 1.7253-0.68622 0.70582-1.7449 1.0979-1.0587 0.39212-2.5096 0.39212zm-13.872-14.018q3.0389 0 4.6662 1.0783 1.6273 1.0587 1.6273 3.4899 0 2.4508-1.6469 3.5487-1.6469 1.0783-4.7054 1.0783h-0.9607v4.5486h-3.0585v-13.391q0.99991-0.19606 2.1175-0.27449 1.1175-0.0784 1.9606-0.0784zm0.19605 2.6076q-0.33329 0-0.66659 0.0196-0.31369 0.0196-0.54898 0.0392v3.9212h0.9607q1.5881 0 2.3919-0.43134 0.80383-0.43133 0.80383-1.6077 0-0.56857-0.21566-0.94109-0.19606-0.37251-0.58817-0.58818-0.37253-0.23527-0.92149-0.31369-0.54896-0.098-1.2156-0.098zm-16.145 11.136v-13.587h9.1756v2.5684h-6.1171v2.6664h5.4309v2.5096h-5.4309v3.2742h6.568v2.5684zm-14.249-5.2348q0 1.3528 0.60778 2.1763 0.60779 0.82345 1.8038 0.82345 0.39212 0 0.72542-0.0196 0.3333-0.0392 0.54897-0.0784v-5.3132q-0.27448-0.17645-0.72542-0.29409-0.43133-0.11763-0.88227-0.11763-2.0782 0-2.0782 2.8233zm6.6072 4.9015q-0.39212 0.11764-0.90188 0.23528-0.50976 0.098-1.0783 0.17645-0.54897 0.0784-1.1371 0.11764-0.56857 0.0588-1.0979 0.0588-1.2744 0-2.2743-0.37251t-1.6861-1.0587q-0.68621-0.70581-1.0587-1.6861-0.35291-0.99991-0.35291-2.2351 0-1.2548 0.3137-2.2547 0.3137-1.0195 0.90188-1.7253 0.58818-0.70582 1.4312-1.0783 0.86267-0.37252 1.9606-0.37252 0.60778 0 1.0783 0.11764 0.49015 0.11763 0.9803 0.3333v-4.6662l2.9213-0.47054zm-15.993-1.7057q0.43133 0 0.82345-0.0196t0.62739-0.0588v-2.2155q-0.17645-0.0392-0.52936-0.0784t-0.647-0.0392q-0.41173 0-0.78424 0.0588-0.35291 0.0392-0.62739 0.17645t-0.43133 0.37252-0.15685 0.58818q0 0.68621 0.45094 0.96069 0.47054 0.25488 1.2744 0.25488zm-0.23527-8.5482q1.294 0 2.1567 0.29408 0.86266 0.29409 1.3724 0.84306 0.52936 0.54897 0.74503 1.3332 0.21567 0.78424 0.21567 1.7449v6.0779q-0.62739 0.13724-1.7449 0.31369-1.1175 0.19606-2.7056 0.19606-0.99991 0-1.8234-0.17645-0.80384-0.17646-1.392-0.56858-0.58818-0.41172-0.90187-1.0587-0.3137-0.647-0.3137-1.5881 0-0.90187 0.35291-1.5293 0.37252-0.6274 0.9803-0.99991 0.60779-0.37251 1.392-0.52936 0.78424-0.17646 1.6273-0.17646 0.56857 0 0.99991 0.0588 0.45094 0.0392 0.72542 0.11764v-0.27449q0-0.74503-0.45094-1.196-0.45094-0.45094-1.5685-0.45094-0.74503 0-1.4705 0.11764-0.72542 0.098-1.2548 0.29409l-0.37252-2.3527q0.25488-0.0784 0.62739-0.15685 0.39212-0.098 0.84306-0.15685 0.45094-0.0784 0.94109-0.11764 0.50976-0.0588 1.0195-0.0588zm-5.9685 5.4112q0 1.2156-0.35291 2.2351-0.35291 0.99991-1.0195 1.7253-0.6666 0.70582-1.6077 1.0979-0.92148 0.39212-2.0782 0.39212-1.1371 0-2.0782-0.39212-0.92148-0.39212-1.5881-1.0979-0.6666-0.72542-1.0391-1.7253-0.37251-1.0195-0.37251-2.2351t0.37251-2.2155q0.39212-0.9999 1.0587-1.7057 0.68621-0.70581 1.6077-1.0979 0.94109-0.39212 2.039-0.39212 1.1175 0 2.039 0.39212 0.94109 0.39212 1.6077 1.0979 0.6666 0.70582 1.0391 1.7057 0.37252 0.99991 0.37252 2.2155zm-2.9801 0q0-1.3528-0.54897-2.1174-0.52936-0.78424-1.5293-0.78424t-1.5489 0.78424q-0.54897 0.76464-0.54897 2.1174 0 1.3528 0.54897 2.1567 0.54897 0.78424 1.5489 0.78424t1.5293-0.78424q0.54897-0.80384 0.54897-2.1567zm-8.7522 5.372q-1.2744-0.0196-2.0782-0.27449-0.78424-0.25488-1.2548-0.70581-0.45094-0.47055-0.62739-1.1176-0.15685-0.6666-0.15685-1.49v-11.352l2.9213-0.47054v11.234q0 0.39212 0.05882 0.70581 0.05882 0.3137 0.21567 0.52937 0.17645 0.21566 0.49015 0.3529t0.84306 0.17646zm-15.682-10.156q0.74503-0.21567 1.9214-0.39212 1.1764-0.19606 2.4704-0.19606 1.3136 0 2.1763 0.35291 0.88227 0.3333 1.392 0.96069 0.50976 0.62739 0.72542 1.4901 0.21567 0.86266 0.21567 1.9214v5.823h-2.9213v-5.4701q0-1.4116-0.37252-1.9998-0.37251-0.58818-1.392-0.58818-0.3137 0-0.6666 0.0392-0.35291 0.0196-0.62739 0.0588v7.96h-2.9213zm-9.0816 4.0388q-0.39212 1.4901-0.84306 2.9605-0.43133 1.4704-0.92148 2.9605h-2.2743q-0.35291-0.82346-0.76464-1.9606-0.41173-1.1372-0.86266-2.4704-0.43133-1.3528-0.90188-2.8429-0.45094-1.5097-0.88227-3.0389h3.0781q0.15685 0.70581 0.3333 1.5489 0.19606 0.82345 0.39212 1.7057 0.21566 0.88227 0.43133 1.7841 0.23527 0.88227 0.47054 1.7057 0.25488-0.86266 0.49015-1.7645 0.25488-0.90187 0.47054-1.7645 0.23527-0.88227 0.43133-1.6861 0.21567-0.82346 0.37252-1.5293h2.1174q0.15685 0.70581 0.35291 1.5293 0.19606 0.80384 0.41173 1.6861 0.21567 0.86267 0.45094 1.7645 0.23527 0.90188 0.49015 1.7645 0.23527-0.82345 0.47054-1.7057 0.23527-0.90187 0.43133-1.7841 0.21567-0.88228 0.39212-1.7057 0.19606-0.84306 0.35291-1.5489h3.0389q-0.43133 1.5293-0.90188 3.0389-0.45094 1.4901-0.90187 2.8429-0.43134 1.3332-0.86267 2.4704-0.41173 1.1371-0.76463 1.9606h-2.2743q-0.49015-1.4901-0.96069-2.9605t-0.86266-2.9605zm-8.3071 0.74503q0 1.2156-0.35291 2.2351-0.35291 0.99991-1.0195 1.7253-0.6666 0.70582-1.6077 1.0979-0.92148 0.39212-2.0782 0.39212-1.1371 0-2.0782-0.39212-0.92148-0.39212-1.5881-1.0979-0.6666-0.72542-1.0391-1.7253-0.37252-1.0195-0.37252-2.2351t0.37252-2.2155q0.39212-0.9999 1.0587-1.7057 0.68621-0.70581 1.6077-1.0979 0.94109-0.39212 2.039-0.39212 1.1175 0 2.039 0.39212 0.94109 0.39212 1.6077 1.0979 0.6666 0.70582 1.0391 1.7057 0.37252 0.99991 0.37252 2.2155zm-2.9801 0q0-1.3528-0.54897-2.1174-0.52936-0.78424-1.5293-0.78424-0.9999 0-1.5489 0.78424-0.54897 0.76464-0.54897 2.1174 0 1.3528 0.54897 2.1567 0.54897 0.78424 1.5489 0.78424 0.99991 0 1.5293-0.78424 0.54897-0.80384 0.54897-2.1567zm-17.848 2.686q0.21566 0.0196 0.49015 0.0392 0.29409 0 0.68621 0 2.2939 0 3.3918-1.1568 1.1175-1.1568 1.1175-3.1958 0-2.137-1.0587-3.235-1.0587-1.0979-3.3526-1.0979-0.3137 0-0.647 0.0196-0.3333 0-0.62739 0.0392zm8.8423-4.3133q0 1.7645-0.54897 3.0782-0.54897 1.3136-1.5685 2.1763-0.99991 0.86267-2.4508 1.294-1.4508 0.43133-3.2546 0.43133-0.82345 0-1.9214-0.0784-1.0979-0.0588-2.1567-0.27451v-13.234q1.0587-0.19606 2.1959-0.25488 1.1568-0.0784 1.9802-0.0784 1.7449 0 3.1566 0.39212 1.4312 0.39212 2.4508 1.2352 1.0195 0.84305 1.5685 2.1567 0.54897 1.3136 0.54897 3.1566z" dominant-baseline="auto" fill-rule="evenodd" style="font-feature-settings:normal;font-variant-alternates:normal;font-variant-caps:normal;font-variant-ligatures:normal;font-variant-numeric:normal;font-variant-position:normal;paint-order:normal;shape-padding:0;text-decoration-color:#000000;text-decoration-line:none;text-decoration-style:solid;text-indent:0;text-orientation:mixed;text-transform:none;white-space:normal"/>
  </g>
 </g>
</svg>
