<?xml version="1.0" encoding="UTF-8"?>
<!-- Created with Inkscape (http://www.inkscape.org/) -->
<svg width="170" height="220" version="1.1" viewBox="0 0 170 220" xmlns="http://www.w3.org/2000/svg" xmlns:cc="http://creativecommons.org/ns#" xmlns:dc="http://purl.org/dc/elements/1.1/" xmlns:rdf="http://www.w3.org/1999/02/22-rdf-syntax-ns#" xmlns:xlink="http://www.w3.org/1999/xlink">
 <defs>
  <linearGradient id="linearGradient5124" x1="220.34" x2="272.34" y1="437.69" y2="437.69" gradientTransform="matrix(.80184 .21485 -.21485 .80184 -64.832 -39.717)" gradientUnits="userSpaceOnUse" xlink:href="#linearGradient4839"/>
  <linearGradient id="linearGradient4839">
   <stop stop-color="#f8f8f8" offset="0"/>
   <stop stop-color="#c4c4c4" offset="1"/>
  </linearGradient>
  <linearGradient id="linearGradient5126" x1="588.35" x2="536.34" y1="410.41" y2="410.41" gradientTransform="matrix(.80184 .21485 -.21485 .80184 -64.832 -39.717)" gradientUnits="userSpaceOnUse" xlink:href="#linearGradient4839"/>
  <linearGradient id="linearGradient5128" x1="327" x2="195" y1="162.32" y2="161.72" gradientTransform="matrix(.80184 .21485 -.21485 .80184 49.143 206.34)" gradientUnits="userSpaceOnUse">
   <stop stop-color="#f2f2f2" offset="0"/>
   <stop stop-color="#a6a6a6" offset="1"/>
  </linearGradient>
  <linearGradient id="linearGradient5130" x1="63" x2="195" y1="206.91" y2="206.91" gradientTransform="matrix(.80184 .21485 -.21485 .80184 49.143 206.34)" gradientUnits="userSpaceOnUse">
   <stop stop-color="#f8f8f8" offset="0"/>
   <stop stop-color="#c4c4c4" offset=".83333"/>
   <stop stop-color="#9b9b9b" offset="1"/>
  </linearGradient>
  <linearGradient id="linearGradient5132" x1="299.09" x2="67.058" y1="159.1" y2="159.1" gradientTransform="matrix(.80184 .21485 -.21485 .80184 49.143 206.34)" gradientUnits="userSpaceOnUse" xlink:href="#linearGradient4839"/>
 </defs>
 <metadata>
  <rdf:RDF>
   <cc:Work rdf:about="">
    <dc:format>image/svg+xml</dc:format>
    <dc:type rdf:resource="http://purl.org/dc/dcmitype/StillImage"/>
    <dc:title/>
   </cc:Work>
  </rdf:RDF>
 </metadata>
 <g transform="translate(90.008 -730.43)">
  <g transform="matrix(.39043 0 0 .39043 -70.168 664.23)">
   <path d="m-29.431 503.79 146.26 75.38 164.36 7.85 74.64-278.55-164.36-7.85-146.26-75.38c-24.883 92.85-49.762 185.7-74.641 278.55zm0 0 146.26 75.38 164.36 7.85 74.64-278.55-164.36-7.85-146.26-75.38c-24.883 92.85-49.762 185.7-74.641 278.55zm0 0 146.26 75.38 164.36 7.85 74.64-278.55-164.36-7.85-146.26-75.38c-24.883 92.85-49.762 185.7-74.641 278.55zm0 0 74.637-278.55c-24.879 92.85-49.758 185.7-74.637 278.55zm310.62 83.23 74.64-278.55zm-310.63-83.23 146.27 75.38zm146.27 75.38 164.36 7.85z" fill="#ff7e28" stroke="#ff7e28" stroke-linecap="round" stroke-linejoin="round" stroke-miterlimit="20" stroke-width="7.0773"/>
   <g fill="#e6e6e6" stroke-width=".70773">
    <path d="m-19.789 498.9 45.993-4.86 92.956 76.47 118.73-19.75 37.4 27.21c23.63-88.21 47.27-176.41 70.9-264.61l-37.4-27.21-118.73 19.75-92.955-76.47-45.993 4.86c-23.633 88.21-47.267 176.41-70.901 264.61z"/>
    <path d="m-19.789 498.9 138.95 71.61 156.13 7.46c23.63-88.21 47.27-176.41 70.9-264.61l-37.4-27.21-118.73 19.75-92.955-76.47-45.993 4.86c-23.633 88.21-47.267 176.41-70.901 264.61z"/>
    <path d="m-19.789 498.9 45.993-4.86 92.956 76.47 118.73-19.75 37.4 27.21c23.63-88.21 47.27-176.41 70.9-264.61l-37.4-27.21-118.73 19.75-92.955-76.47-45.993 4.86c-23.633 88.21-47.267 176.41-70.901 264.61z"/>
   </g>
   <g stroke-width=".70773">
    <path d="m-19.789 498.9 45.993-4.86 70.901-264.61-45.993 4.86c-23.633 88.21-47.267 176.41-70.901 264.61z" fill="url(#linearGradient5124)"/>
    <path d="m237.89 550.76 37.4 27.21c23.63-88.21 47.27-176.41 70.9-264.61l-37.4-27.21z" fill="url(#linearGradient5126)"/>
    <path d="m26.204 494.04s33.405 13.24 56.642 32.36c23.234 19.12 36.314 44.11 36.314 44.11s23.81-15.11 53.49-20.04c29.69-4.94 65.24 0.29 65.24 0.29l70.9-264.61s-35.55-5.23-65.24-0.29c-29.68 4.94-53.49 20.04-53.49 20.04s-13.07-24.99-36.31-44.1c-23.24-19.12-56.645-32.37-56.645-32.37z" fill="#e6e6e6"/>
    <path d="m190.05 305.9-70.9 264.61s23.81-15.11 53.5-20.05c29.68-4.93 65.23 0.3 65.23 0.3l70.91-264.61s-35.56-5.23-65.24-0.29c-29.68 4.93-53.5 20.04-53.5 20.04z" fill="url(#linearGradient5128)"/>
    <path d="m97.1 229.43-70.901 264.6s33.405 13.25 56.643 32.37 36.308 44.11 36.308 44.11l70.9-264.61s-13.07-24.99-36.31-44.11c-23.23-19.11-56.64-32.36-56.64-32.36z" fill="url(#linearGradient5130)"/>
    <path d="m26.199 494.04-45.993 4.86 138.94 71.61s-0.83-1.56-2.42-4.2-3.93-6.37-7.02-10.69c-1.54-2.16-3.27-4.46-5.17-6.86s-3.97-4.87-6.213-7.39c-2.246-2.51-4.678-5.07-7.26-7.58-2.581-2.51-5.321-5-8.226-7.39-2.904-2.39-5.978-4.68-9.115-6.87-3.138-2.19-6.355-4.28-9.554-6.24-3.2-1.97-6.387-3.81-9.479-5.52s-6.073-3.3-8.887-4.72c-5.628-2.85-10.521-5.09-14.016-6.63-3.494-1.54-5.591-2.38-5.591-2.38z" fill="#b3b3b3"/>
    <path d="m119.15 570.51 156.13 7.46-37.4-27.21s-2.23-0.32-6.03-0.73c-3.8-0.42-9.15-0.93-15.45-1.27-3.15-0.17-6.53-0.29-10.06-0.36-3.53-0.06-7.21-0.06-10.97 0.04-3.75 0.11-7.58 0.3-11.39 0.63s-7.62 0.78-11.33 1.39c-3.71 0.62-7.33 1.4-10.82 2.29-3.49 0.88-6.88 1.88-10.08 2.94-3.2 1.05-6.23 2.16-9.07 3.29-2.85 1.12-5.5 2.26-7.91 3.36-4.83 2.19-8.73 4.25-11.43 5.74-2.69 1.5-4.19 2.43-4.19 2.43z" fill="#b3b3b3"/>
    <path d="m190.05 305.9-70.9 264.61s14.46-31.31 41.02-41.65c26.57-10.34 65.24 0.29 65.24 0.29l70.9-264.61s-38.67-10.63-65.24-0.29c-26.56 10.34-41.02 41.65-41.02 41.65z" fill="url(#linearGradient5132)"/>
   </g>
  </g>
  <path d="m46.564 934.39q0-1.5466 0.46399-2.6955 0.48608-1.171 1.2594-1.9443t1.7676-1.171q1.0164-0.3977 2.0769-0.3977 2.4746 0 3.9107 1.5245 1.4362 1.5024 1.4362 4.441 0 0.28722-0.0221 0.64075-0.0221 0.33141-0.0442 0.59654h-7.468q0.11047 1.0164 0.95006 1.6129 0.8396 0.59656 2.2536 0.59656 0.90588 0 1.7676-0.15466 0.88378-0.17676 1.4362-0.41981l0.44189 2.6734q-0.26514 0.13257-0.70703 0.26514-0.44189 0.13258-0.99426 0.22094-0.53027 0.11048-1.1489 0.17676-0.61865 0.0663-1.2373 0.0663-1.5687 0-2.7397-0.46399-1.1489-0.46399-1.9222-1.2594-0.75122-0.8175-1.1268-1.9222-0.35352-1.1047-0.35352-2.3862zm7.7331-1.2594q-0.0221-0.4198-0.15466-0.8175-0.11048-0.39772-0.37561-0.70704-0.24304-0.30932-0.64075-0.50817-0.3756-0.19885-0.95006-0.19885-0.55237 0-0.95007 0.19885-0.3977 0.17675-0.66284 0.48608-0.26513 0.30933-0.4198 0.72913-0.13256 0.3977-0.19885 0.8175zm-20.213-4.2422q0.8396-0.24304 2.1653-0.4419 1.3257-0.22093 2.7839-0.22093 1.4803 0 2.4525 0.39769 0.99426 0.37562 1.5687 1.0826 0.57446 0.70703 0.8175 1.6792t0.24304 2.1653v6.5621h-3.2921v-6.1644q0-1.5908-0.41979-2.2536-0.4198-0.66284-1.5687-0.66284-0.35351 0-0.75122 0.0442-0.3977 0.0221-0.70702 0.0663v8.9704h-3.2921zm-3.0946 11.224h-3.2921v-11.622h3.2921zm0.30932-14.98q0 0.90589-0.59655 1.4362-0.57446 0.50818-1.3699 0.50818-0.7954 0-1.392-0.50818-0.57446-0.53026-0.57446-1.4362 0-0.90587 0.57446-1.414 0.59655-0.53029 1.392-0.53029 0.79541 0 1.3699 0.53029 0.59655 0.50817 0.59655 1.414zm-5.9524 15.201q-1.4362-0.0221-2.342-0.30932-0.88378-0.28722-1.414-0.79539-0.50818-0.53029-0.70703-1.2594-0.17676-0.75122-0.17676-1.6792v-12.793l3.2921-0.53027v12.66q0 0.44188 0.0663 0.79541 0.0663 0.35351 0.24304 0.59654 0.19885 0.24305 0.55236 0.39771 0.35352 0.15465 0.95007 0.19885zm-17.672-11.445q0.83959-0.24304 2.1653-0.4419 1.3257-0.22093 2.7839-0.22093 1.4803 0 2.4525 0.39769 0.99425 0.37562 1.5687 1.0826 0.57446 0.70703 0.8175 1.6792t0.24304 2.1653v6.5621h-3.2921v-6.1644q0-1.5908-0.4198-2.2536-0.4198-0.66284-1.5687-0.66284-0.35352 0-0.75122 0.0442-0.3977 0.0221-0.70703 0.0663v8.9704h-3.2921zm-14.319 3.5572q0 1.1268 0.26514 2.0327 0.28723 0.90587 0.7954 1.5687 0.53027 0.64075 1.2815 0.99426t1.7234 0.35351q0.95007 0 1.7013-0.35351 0.77331-0.35351 1.2815-0.99426 0.53027-0.66283 0.7954-1.5687 0.28723-0.90589 0.28723-2.0327 0-1.1268-0.28723-2.0327-0.26513-0.92798-0.7954-1.5687-0.50818-0.66284-1.2815-1.0164-0.75121-0.35352-1.7013-0.35352-0.97216 0-1.7234 0.37563-0.75122 0.35351-1.2815 1.0164-0.50817 0.64074-0.7954 1.5687-0.26514 0.90589-0.26514 2.0106zm11.688 0q0 1.9664-0.59655 3.4689-0.57446 1.4803-1.5908 2.4967-1.0164 0.99425-2.4304 1.5024-1.392 0.50818-3.0049 0.50818-1.5687 0-2.9607-0.50818t-2.4304-1.5024q-1.0384-1.0164-1.635-2.4967-0.59655-1.5024-0.59655-3.4689 0-1.9664 0.61864-3.4467 0.61865-1.5024 1.6571-2.5188 1.0605-1.0164 2.4304-1.5245 1.392-0.50818 2.9165-0.50818 1.5687 0 2.9607 0.50818 1.392 0.50817 2.4304 1.5245 1.0384 1.0164 1.635 2.5188 0.59655 1.4803 0.59655 3.4467zm-30.64 1.7676q0 1.5245 0.68494 2.4525 0.68493 0.92798 2.0327 0.92798 0.44189 0 0.8175-0.0221 0.3756-0.0442 0.61865-0.0884v-5.9876q-0.30933-0.19886-0.8175-0.33141-0.48609-0.13258-0.99426-0.13258-2.342 0-2.342 3.1816zm7.4459 5.5236q-0.44189 0.13256-1.0164 0.26512-0.57446 0.11048-1.2152 0.19886-0.61865 0.0884-1.2815 0.13256-0.64074 0.0663-1.2373 0.0663-1.4362 0-2.563-0.4198-1.1268-0.41979-1.9001-1.1931-0.77331-0.7954-1.1931-1.9001-0.3977-1.1268-0.3977-2.5188 0-1.414 0.35351-2.5409 0.35351-1.1489 1.0164-1.9443 0.66284-0.7954 1.6129-1.2152 0.97217-0.41981 2.2095-0.41981 0.68494 0 1.2152 0.13258 0.55236 0.13257 1.1047 0.3756v-5.2585l3.2921-0.53026zm-18.023-1.9222q0.48608 0 0.92797-0.0221t0.70703-0.0663v-2.4967q-0.19885-0.0442-0.59656-0.0884t-0.72912-0.0442q-0.46399 0-0.88378 0.0663-0.3977 0.0442-0.70703 0.19885-0.30933 0.15467-0.48609 0.41981-0.17675 0.26512-0.17675 0.66284 0 0.77329 0.50818 1.0826 0.53027 0.28723 1.4362 0.28723zm-0.26514-9.6332q1.4582 0 2.4304 0.33142t1.5466 0.95006q0.59656 0.61865 0.8396 1.5024 0.24304 0.8838 0.24304 1.9664v6.8493q-0.70703 0.15466-1.9664 0.35351-1.2594 0.22094-3.0491 0.22094-1.1268 0-2.0548-0.19885-0.90588-0.19885-1.5687-0.64075-0.66284-0.46398-1.0164-1.1931-0.3535-0.72911-0.3535-1.7897 0-1.0164 0.3977-1.7234 0.41979-0.70704 1.1047-1.1268 0.68492-0.41981 1.5687-0.59656 0.88378-0.19885 1.8338-0.19885 0.64075 0 1.1268 0.0663 0.50818 0.0442 0.81751 0.13255v-0.30933q0-0.83959-0.50818-1.3478-0.50817-0.50816-1.7676-0.50816-0.8396 0-1.6571 0.13256-0.81749 0.11048-1.414 0.33142l-0.41981-2.6514q0.28724-0.0884 0.70703-0.17675 0.4419-0.11048 0.95007-0.17675 0.50817-0.0884 1.0605-0.13258 0.57446-0.0663 1.1489-0.0663zm-17.631 6.2086q0-1.5466 0.46399-2.6955 0.48608-1.171 1.2594-1.9443t1.7676-1.171q1.0164-0.3977 2.0769-0.3977 2.4746 0 3.9107 1.5245 1.4362 1.5024 1.4362 4.441 0 0.28722-0.0221 0.64075-0.0221 0.33141-0.0442 0.59654h-7.468q0.11047 1.0164 0.95006 1.6129 0.8396 0.59656 2.2536 0.59656 0.90588 0 1.7676-0.15466 0.88378-0.17676 1.4362-0.41981l0.44189 2.6734q-0.26514 0.13257-0.70703 0.26514-0.44189 0.13258-0.99425 0.22094-0.53027 0.11048-1.1489 0.17676-0.61865 0.0663-1.2373 0.0663-1.5687 0-2.7397-0.46399-1.1489-0.46399-1.9222-1.2594-0.75121-0.8175-1.1268-1.9222-0.35352-1.1047-0.35352-2.3862zm7.7331-1.2594q-0.0221-0.4198-0.15466-0.8175-0.11048-0.39772-0.37561-0.70704-0.24304-0.30932-0.64074-0.50817-0.37561-0.19885-0.95007-0.19885-0.55237 0-0.95007 0.19885-0.3977 0.17675-0.66284 0.48608-0.26513 0.30933-0.41979 0.72913-0.13257 0.3977-0.19886 0.8175zm-16.672-8.5064q3.4468 0 5.2806 1.2373 1.8338 1.2152 1.8338 3.8003 0 1.6129-0.75121 2.6292-0.72913 0.99427-2.1211 1.5687 0.46398 0.57445 0.97216 1.3257 0.50817 0.72912 0.99425 1.5466 0.50818 0.79541 0.97217 1.6792 0.46398 0.86169 0.86168 1.7013h-3.8666q-0.4198-0.75122-0.86169-1.5245-0.41979-0.77331-0.88378-1.5024-0.44189-0.72913-0.88378-1.3699-0.4419-0.66283-0.88379-1.1931h-1.7013v5.5899h-3.4468v-15.091q1.1268-0.22094 2.3199-0.30931 1.2152-0.0884 2.1653-0.0884zm0.19886 2.9386q-0.37561 0-0.68494 0.0221-0.28723 0.0221-0.55236 0.0442v4.1538h0.97216q1.9443 0 2.7839-0.48608 0.83959-0.48606 0.83959-1.6571 0-1.1268-0.86169-1.5908-0.83959-0.48609-2.4967-0.48609z" dominant-baseline="auto" fill-rule="evenodd" style="font-feature-settings:normal;font-variant-alternates:normal;font-variant-caps:normal;font-variant-ligatures:normal;font-variant-numeric:normal;font-variant-position:normal;paint-order:normal;shape-padding:0;text-decoration-color:#000000;text-decoration-line:none;text-decoration-style:solid;text-indent:0;text-orientation:mixed;text-transform:none;white-space:normal"/>
 </g>
</svg>
